<?xml version="1.0" standalone="no"?>
<!DOCTYPE svg PUBLIC "-//W3C//DTD SVG 20010904//EN"
 "http://www.w3.org/TR/2001/REC-SVG-20010904/DTD/svg10.dtd">
<svg version="1.0" xmlns="http://www.w3.org/2000/svg"
 width="512.000000pt" height="512.000000pt" viewBox="0 0 512.000000 512.000000"
 preserveAspectRatio="xMidYMid meet">
<metadata>
Created by potrace 1.14, written by Peter Selinger 2001-2017
</metadata>
<g transform="translate(0.000000,512.000000) scale(0.100000,-0.100000)"
fill="#000000" stroke="none">
<path d="M1690 4375 l0 -25 -130 0 -130 0 0 -25 c0 -23 -3 -25 -50 -25 -47 0
-50 -2 -50 -25 0 -20 -5 -25 -25 -25 -20 0 -25 -5 -25 -25 0 -20 -5 -25 -25
-25 -20 0 -25 -5 -25 -25 0 -20 -5 -25 -25 -25 -20 0 -25 -5 -25 -25 0 -20 -5
-25 -25 -25 -20 0 -25 -5 -25 -24 0 -19 -6 -25 -27 -28 -26 -3 -28 -7 -31 -55
-3 -49 -5 -53 -28 -53 -23 0 -24 -2 -24 -75 0 -73 -1 -75 -25 -75 -24 0 -25
-2 -25 -74 l0 -75 -47 -3 c-44 -3 -48 -5 -51 -30 -3 -22 -9 -28 -28 -28 -19 0
-24 -5 -24 -25 0 -20 -5 -25 -25 -25 -20 0 -25 -5 -25 -25 0 -20 -5 -25 -25
-25 -20 0 -25 -5 -25 -25 0 -20 -5 -25 -25 -25 -20 0 -25 -5 -25 -25 0 -21 -5
-25 -30 -25 -25 0 -30 -4 -30 -25 0 -20 -5 -25 -25 -25 -23 0 -25 -3 -25 -49
0 -44 -3 -50 -22 -53 -23 -3 -23 -5 -26 -180 l-2 -178 -25 0 -25 0 0 -260 0
-260 25 0 c24 0 25 -2 25 -75 0 -73 1 -75 25 -75 l25 0 0 -125 0 -125 25 0
c21 0 25 -5 25 -30 0 -25 -4 -30 -25 -30 -20 0 -25 -5 -25 -25 0 -20 -5 -25
-25 -25 -20 0 -25 -5 -25 -25 0 -20 -5 -25 -25 -25 -20 0 -25 -5 -25 -25 0
-20 -5 -25 -25 -25 -20 0 -25 -5 -25 -25 0 -20 -5 -25 -25 -25 -20 0 -25 -5
-25 -25 0 -20 5 -25 25 -25 20 0 25 -5 25 -25 0 -20 -5 -25 -25 -25 -20 0 -25
-5 -25 -25 0 -20 -5 -25 -25 -25 -20 0 -25 -5 -25 -25 0 -20 -5 -25 -24 -25
-19 0 -25 -6 -28 -27 -2 -22 -9 -29 -31 -31 -21 -3 -27 -9 -27 -28 0 -19 -5
-24 -25 -24 -20 0 -25 -5 -25 -25 0 -20 -5 -25 -25 -25 -23 0 -25 -3 -25 -50
0 -47 -2 -50 -25 -50 -23 0 -25 -3 -25 -50 0 -47 -2 -50 -25 -50 l-25 0 0
-565 0 -565 1230 0 1230 0 0 50 c0 46 -2 50 -25 50 -23 0 -24 3 -27 78 -3 71
-5 77 -25 80 -22 3 -23 8 -23 78 0 72 1 74 25 74 20 0 25 5 25 25 0 24 2 25
75 25 73 0 75 1 75 25 0 20 -5 25 -25 25 -20 0 -25 5 -25 25 0 20 -5 25 -25
25 -20 0 -25 5 -25 25 0 20 -5 25 -24 25 -19 0 -25 6 -28 27 -2 20 -9 29 -25
31 -19 3 -22 11 -25 50 -3 43 -5 47 -30 50 -22 3 -28 9 -28 28 0 19 -5 24 -25
24 -20 0 -25 5 -25 25 0 20 -5 25 -25 25 -20 0 -25 5 -25 25 0 20 -5 25 -25
25 -20 0 -25 5 -25 25 l0 25 130 0 130 0 0 25 0 25 100 0 100 0 0 25 c0 23 3
25 49 25 47 0 50 2 53 28 2 21 8 27 28 27 20 0 26 -6 28 -27 3 -22 9 -28 28
-28 19 0 24 -5 24 -25 0 -24 2 -25 75 -25 73 0 75 -1 75 -25 0 -20 5 -25 25
-25 l25 0 0 -205 0 -205 25 0 25 0 0 -280 0 -280 25 0 25 0 0 280 0 280 -25 0
-25 0 0 205 0 205 -25 0 c-20 0 -25 5 -25 25 0 24 2 25 75 25 74 0 75 0 75 25
0 20 6 27 30 32 24 4 30 11 30 30 0 20 4 24 23 21 16 -2 23 -11 25 -30 3 -28
4 -28 78 -28 72 0 74 -1 74 -25 l0 -25 130 0 130 0 0 -25 c0 -20 -5 -25 -25
-25 -23 0 -25 -3 -25 -50 0 -49 -1 -50 -30 -50 l-30 0 0 -99 c0 -96 -1 -100
-22 -103 -21 -3 -23 -9 -26 -80 -3 -75 -4 -78 -27 -78 -23 0 -25 -4 -25 -50
l0 -50 50 0 c46 0 50 -2 50 -24 0 -19 6 -25 28 -28 19 -2 28 -9 30 -25 3 -17
-2 -22 -25 -25 l-28 -3 -3 -102 c-3 -102 -3 -103 -27 -103 -23 0 -25 -4 -25
-50 l0 -50 795 0 795 0 0 255 0 255 -25 0 c-23 0 -25 3 -25 50 0 46 -2 50 -24
50 -19 0 -25 6 -28 28 -2 19 -9 28 -25 30 -22 3 -23 8 -23 78 0 72 -1 74 -25
74 -20 0 -25 5 -25 25 0 21 -5 25 -30 25 -29 0 -30 1 -30 49 0 44 -3 50 -22
53 -15 2 -24 11 -26 25 -2 14 -11 23 -25 25 -20 3 -22 9 -25 81 -3 74 -4 77
-27 77 -20 0 -25 5 -25 25 0 20 -5 25 -25 25 -23 0 -25 3 -25 50 0 47 -2 50
-25 50 -20 0 -25 5 -25 25 0 20 -5 25 -25 25 -20 0 -25 5 -25 25 0 20 -5 25
-24 25 -19 0 -25 6 -28 27 -2 22 -9 29 -30 31 -22 3 -28 9 -28 28 0 19 -5 24
-25 24 -20 0 -25 5 -25 25 0 20 5 25 25 25 20 0 25 5 25 25 0 20 -5 25 -25 25
l-25 0 0 100 0 100 -25 0 -25 0 0 130 0 130 50 0 c47 0 50 2 50 25 0 21 5 25
30 25 l30 0 0 74 c0 74 0 75 -27 78 -22 2 -29 9 -31 31 -3 21 -9 27 -28 27
-22 0 -24 4 -24 50 0 46 2 50 24 50 18 0 25 6 28 23 2 16 11 23 31 25 l27 3 0
124 c0 121 1 124 23 127 16 2 23 11 25 31 3 21 9 27 28 27 19 0 24 5 24 25 0
20 5 25 25 25 23 0 25 3 25 50 0 47 -2 50 -25 50 -20 0 -25 5 -25 25 0 20 5
25 25 25 20 0 25 5 25 25 0 20 5 25 25 25 l25 0 0 130 0 130 -25 0 c-23 0 -25
3 -25 50 0 47 -2 50 -25 50 -23 0 -25 3 -25 50 0 47 -2 50 -25 50 -20 0 -25 5
-25 25 0 20 -5 25 -25 25 -23 0 -24 3 -27 78 -3 76 -3 77 -30 80 -22 3 -28 9
-28 28 0 19 -5 24 -25 24 -20 0 -25 5 -25 25 0 20 -5 25 -25 25 -20 0 -25 5
-25 25 l0 25 -125 0 -124 0 -3 78 c-3 71 -5 77 -25 80 -19 3 -22 11 -25 50 -3
43 -5 47 -30 50 -22 3 -28 9 -28 28 0 19 -5 24 -25 24 -20 0 -25 5 -25 25 0
23 -3 25 -50 25 -47 0 -50 2 -50 25 0 24 -2 25 -75 25 -73 0 -75 1 -75 25 0
25 -1 25 -80 25 -79 0 -80 0 -80 25 l0 25 -180 0 -180 0 0 -25 0 -25 -100 0
-100 0 0 -25 c0 -23 -3 -25 -50 -25 -47 0 -50 -2 -50 -25 0 -24 -3 -25 -55
-25 -52 0 -55 -1 -55 -25 0 -20 -5 -25 -25 -25 -20 0 -25 -5 -25 -25 0 -23 -3
-25 -50 -25 -47 0 -50 2 -50 25 0 20 -5 25 -25 25 -20 0 -25 5 -25 25 0 20 -5
25 -25 25 -20 0 -25 5 -25 25 0 24 -2 25 -75 25 -73 0 -75 1 -75 25 0 24 -3
25 -55 25 -52 0 -55 1 -55 25 l0 25 -280 0 -280 0 0 -25z m460 -820 l0 -25
100 0 100 0 0 -25 c0 -24 3 -25 55 -25 52 0 55 -1 55 -25 0 -24 2 -25 75 -25
73 0 75 -1 75 -25 0 -24 2 -25 75 -25 73 0 75 -1 75 -25 0 -23 3 -25 49 -25
47 0 50 -2 53 -27 3 -26 7 -28 56 -31 48 -3 52 -5 52 -28 0 -22 4 -24 50 -24
47 0 50 -2 50 -25 0 -20 5 -25 25 -25 24 0 25 -2 25 -75 0 -73 -1 -75 -25 -75
-20 0 -25 -5 -25 -25 0 -21 5 -25 30 -25 25 0 30 4 30 25 0 20 5 25 25 25 20
0 25 5 25 25 l0 25 205 0 205 0 0 25 c0 23 3 25 50 25 47 0 50 2 50 25 0 23 3
25 50 25 43 0 50 -3 50 -20 0 -15 -7 -20 -24 -20 -19 0 -25 -6 -28 -27 -2 -22
-9 -29 -30 -31 -22 -3 -28 -9 -28 -28 0 -17 -5 -24 -20 -24 -15 0 -20 -7 -20
-25 0 -21 -5 -25 -30 -25 l-30 0 0 -74 c0 -74 0 -75 28 -78 25 -3 27 -6 27
-53 l0 -50 -50 0 c-44 0 -50 3 -53 23 -3 19 -9 22 -53 22 -48 0 -49 1 -49 30
l0 30 -74 0 c-70 0 -75 1 -78 23 -3 20 -9 22 -80 25 -75 3 -78 4 -78 27 0 20
-5 25 -25 25 -20 0 -25 5 -25 25 0 20 -5 25 -25 25 -20 0 -25 -5 -25 -25 0
-20 -5 -25 -25 -25 -20 0 -25 -5 -25 -25 l0 -25 -100 0 -100 0 0 25 c0 20 5
25 25 25 l25 0 0 100 c0 99 0 100 -24 100 -23 0 -25 4 -28 53 -3 45 -6 52 -25
55 -14 2 -23 11 -25 25 -3 20 -9 22 -80 25 -75 3 -78 4 -78 27 0 24 -2 25 -75
25 -73 0 -75 1 -75 25 l0 25 -205 0 -205 0 0 -25 c0 -20 -5 -25 -25 -25 -20 0
-25 -5 -25 -24 0 -19 -6 -25 -27 -28 -20 -2 -29 -9 -31 -25 -2 -14 -11 -23
-25 -25 -19 -3 -22 -10 -25 -55 -3 -49 -5 -53 -28 -53 -24 0 -24 -1 -24 -100
l0 -100 25 0 c20 0 25 -5 25 -25 l0 -25 -149 0 c-148 0 -150 0 -153 23 -3 21
-8 22 -105 25 -102 3 -103 3 -103 27 0 24 -2 25 -75 25 -73 0 -75 1 -75 25 0
20 -5 25 -25 25 -23 0 -25 3 -25 50 0 47 2 50 25 50 20 0 25 5 25 25 0 20 5
25 25 25 23 0 25 3 25 50 0 47 2 50 25 50 21 0 25 5 25 30 0 25 4 30 25 30 20
0 25 5 25 25 0 24 3 25 55 25 52 0 55 1 55 25 0 23 3 25 50 25 47 0 50 2 50
25 0 23 3 25 50 25 47 0 50 2 50 25 0 24 2 25 75 25 73 0 75 1 75 25 l0 25
180 0 180 0 0 -25z m2460 -175 c0 -47 2 -50 25 -50 l25 0 0 -130 0 -130 -25 0
c-20 0 -25 -5 -25 -25 0 -20 -5 -25 -25 -25 -20 0 -25 -5 -25 -25 0 -20 -5
-25 -25 -25 -20 0 -25 5 -25 24 0 19 -6 25 -27 28 -26 3 -28 7 -31 50 -3 39
-6 47 -25 50 -14 2 -23 11 -25 25 -2 14 -11 23 -25 25 -16 2 -23 11 -25 31
l-3 27 -230 0 c-220 0 -229 1 -229 19 0 17 8 20 53 23 48 3 52 5 55 31 3 25 6
27 53 27 46 0 49 2 49 25 0 23 3 25 50 25 47 0 50 2 50 25 l0 25 205 0 205 0
0 -50z m-720 -180 c0 -17 -7 -20 -50 -20 -43 0 -50 3 -50 20 0 17 7 20 50 20
43 0 50 -3 50 -20z m-1480 -56 c0 -22 -4 -25 -27 -22 -20 2 -29 9 -31 26 -3
19 1 22 27 22 27 0 31 -4 31 -26z m1638 -46 c-2 -17 -10 -23 -28 -23 -18 0
-26 6 -28 23 -3 19 1 22 28 22 27 0 31 -3 28 -22z m202 -3 c0 -20 5 -25 25
-25 20 0 25 -5 25 -25 0 -20 -5 -25 -25 -25 -20 0 -25 -5 -25 -25 0 -23 -3
-25 -50 -25 l-50 0 0 50 c0 47 2 50 25 50 20 0 25 5 25 25 0 20 5 25 25 25 20
0 25 -5 25 -25z m-2050 -100 l0 -75 -100 0 -100 0 0 25 c0 20 5 25 25 25 20 0
25 5 25 25 0 23 3 25 50 25 47 0 50 2 50 25 0 20 5 25 25 25 24 0 25 -2 25
-75z m360 -75 l0 -50 -106 0 c-104 0 -105 0 -102 23 2 16 11 23 31 25 21 3 27
9 27 28 0 23 2 24 75 24 l75 0 0 -50z m1380 -50 l0 -50 -75 0 c-73 0 -75 1
-75 25 0 20 5 25 25 25 20 0 25 5 25 25 0 23 3 25 50 25 l50 0 0 -50z m-2250
-670 c0 -47 -2 -50 -25 -50 -20 0 -25 5 -25 25 0 20 -5 25 -25 25 -20 0 -25 5
-25 25 0 23 3 25 50 25 l50 0 0 -50z m100 -25 c0 -25 1 -25 80 -25 l80 0 0
-37 c0 -21 -3 -55 -6 -75 -6 -37 -8 -38 -50 -38 -37 0 -43 3 -46 23 -3 19 -10
22 -55 25 l-53 3 0 75 c0 72 1 74 25 74 20 0 25 -5 25 -25z m410 -150 l0 -75
-50 0 c-47 0 -50 2 -50 25 0 23 -3 25 -50 25 l-50 0 0 50 0 50 100 0 100 0 0
-75z m260 -25 c0 -99 0 -100 -24 -100 -18 0 -25 6 -28 23 -3 20 -9 22 -75 25
-73 3 -73 3 -73 31 0 16 -3 49 -6 75 l-7 46 107 0 106 0 0 -100z m1278 -2 l-3
-103 -95 4 c-52 2 -96 4 -96 5 -1 0 -5 34 -9 74 l-7 72 81 0 c80 0 81 0 81 25
0 20 5 25 25 25 l26 0 -3 -102z m252 -4 l0 -107 -37 7 c-21 3 -66 6 -100 6
l-63 0 0 100 0 100 100 0 100 0 0 -106z m260 0 l0 -107 -37 7 c-21 3 -66 6
-100 6 l-63 0 0 100 0 100 100 0 100 0 0 -106z m-1540 -19 l0 -75 -100 0 -100
0 0 75 0 75 100 0 100 0 0 -75z m260 -6 l0 -82 -37 7 c-21 3 -66 6 -100 6
l-63 0 0 75 0 75 100 0 100 0 0 -81z m255 1 c0 -71 -1 -75 -22 -74 -13 0 -59
1 -103 2 l-80 2 0 75 0 76 103 -3 102 -3 0 -75z m255 -1 l0 -82 -37 7 c-21 3
-66 6 -100 6 l-63 0 0 75 0 75 100 0 100 0 0 -81z m-2870 -154 c0 -23 3 -25
49 -25 44 0 50 -3 53 -22 2 -17 11 -24 31 -26 21 -3 27 -9 27 -28 0 -19 5 -24
25 -24 20 0 25 -5 25 -25 0 -23 3 -25 49 -25 47 0 50 -2 53 -27 l3 -28 100 0
c96 0 100 -1 103 -22 3 -22 7 -23 102 -23 l99 0 3 -27 3 -28 358 -3 357 -2 0
-50 c0 -47 -2 -50 -25 -50 l-24 0 -3 -152 c-3 -149 -4 -153 -25 -156 -14 -2
-23 -11 -25 -25 -2 -16 -11 -23 -30 -25 -22 -3 -28 -9 -28 -28 0 -19 -5 -24
-25 -24 -20 0 -25 -5 -25 -25 0 -20 -5 -25 -25 -25 -20 0 -25 5 -25 25 0 20
-5 25 -25 25 -20 0 -25 5 -25 25 0 20 -5 25 -25 25 -20 0 -25 5 -25 25 0 20
-5 25 -24 25 -19 0 -25 6 -28 28 -2 19 -9 28 -25 30 -14 2 -23 11 -25 25 -2
14 -11 23 -25 25 -14 2 -23 11 -25 25 -3 19 -10 22 -55 25 -49 3 -53 5 -53 28
0 22 -4 24 -50 24 -47 0 -50 2 -50 25 0 23 -3 25 -50 25 -47 0 -50 2 -50 25 0
23 -3 25 -50 25 -46 0 -50 2 -50 24 0 23 -4 25 -52 28 -45 3 -53 6 -56 24 -4
26 -35 34 -133 34 -67 0 -69 1 -69 25 0 24 -2 25 -75 25 -73 0 -75 1 -75 25
l0 25 -105 0 -105 0 0 25 c0 20 -5 25 -25 25 -20 0 -25 5 -25 25 0 20 5 25 25
25 20 0 25 5 25 25 0 20 5 25 25 25 20 0 25 5 25 25 0 21 5 25 30 25 25 0 30
4 30 25 0 18 5 25 20 25 15 0 20 -7 20 -25z m3790 -200 c0 -20 -5 -25 -25 -25
-20 0 -25 -5 -25 -25 0 -20 -5 -25 -25 -25 -21 0 -25 -5 -25 -30 0 -25 -4 -30
-25 -30 -23 0 -25 -3 -25 -50 0 -47 -2 -50 -25 -50 -20 0 -25 -5 -25 -25 0
-20 -5 -25 -25 -25 -23 0 -25 -3 -25 -50 0 -47 -2 -50 -25 -50 -23 0 -25 -3
-25 -50 0 -46 -2 -50 -24 -50 -23 0 -25 -4 -28 -52 -3 -49 -5 -53 -30 -56 -22
-3 -28 -8 -28 -28 0 -21 -4 -25 -22 -22 -15 2 -24 11 -26 25 -2 14 -11 23 -25
25 -14 2 -23 11 -25 26 -3 16 -10 22 -28 22 l-24 0 0 205 0 205 74 0 c74 0 75
0 78 28 2 21 9 28 31 30 21 3 27 9 27 28 0 22 4 24 50 24 47 0 50 2 50 25 l0
25 125 0 125 0 0 -25z"/>
<path d="M2820 796 c0 -18 6 -25 23 -28 19 -3 22 -10 25 -50 3 -43 5 -48 28
-48 23 0 24 2 24 75 l0 75 -50 0 c-46 0 -50 -2 -50 -24z"/>
<path d="M2870 175 c0 -20 5 -25 25 -25 23 0 25 -3 25 -50 0 -47 2 -50 25 -50
24 0 25 2 25 75 l0 75 -50 0 c-47 0 -50 -2 -50 -25z"/>
</g>
</svg>
